Coordinates
version=1
nRows=18
nColumns=22
inDegrees=yes

Units are S.I. units (second, meters, Newtons, ...)
If the header above contains a line with 'inDegrees', this indicates whether rotational values are in degrees (yes) or radians (no).

endheader
time	pelvis_tilt	pelvis_list	pelvis_rotation	pelvis_tx	pelvis_ty	pelvis_tz	hip_flexion_r	hip_adduction_r	hip_rotation_r	knee_angle_r	ankle_angle_r	subtalar_angle_r	hip_flexion_l	hip_adduction_l	hip_rotation_l	knee_angle_l	ankle_angle_l	subtalar_angle_l	lumbar_extension	lumbar_bending	lumbar_rotation
      0.01000000	     -4.60301355	     -7.50672888	      0.56205474	     -1.08114905	      0.97711164	      0.08889515	      8.05821286	      9.38858397	     -5.16089273	    -14.47804845	      9.05833296	     -0.68681859	      5.37280175	     -7.14980729	      2.29690569	    -10.25491857	     11.82257583	     -2.90492336	      2.42608258	      6.39849432	     -7.15590389
      0.02000000	     -4.61598409	     -7.53417075	      0.48964800	     -1.08119282	      0.97711597	      0.08912182	      8.05175064	      9.43919899	     -5.07349793	    -14.44560073	      9.01533405	     -0.65119601	      5.36920742	     -7.19466097	      2.25055874	    -10.24640713	     11.82686713	     -2.99722346	      2.45064113	      6.42325210	     -7.11786635
      0.03000000	     -4.61029661	     -7.54262232	      0.44067218	     -1.08123198	      0.97713069	      0.08932269	      8.02966823	      9.46402883	     -5.03269132	    -14.42096936	      9.01024037	     -0.63586708	      5.35890721	     -7.21734531	      2.20477685	    -10.25209009	     11.82591314	     -3.04534215	      2.46012212	      6.42371947	     -7.12856301
      0.04000000	     -4.60371491	     -7.55416186	      0.39055063	     -1.08126373	      0.97714380	      0.08954540	      8.00950214	      9.49393795	     -4.98870964	    -14.40139365	      8.99808085	     -0.62955701	      5.34552819	     -7.24465602	      2.16771459	    -10.25534701	     11.82933946	     -3.06766428	      2.47364728	      6.42473977	     -7.13629768
      0.05000000	     -4.59365364	     -7.55994713	      0.35367887	     -1.08128173	      0.97715210	      0.08975773	      7.99587628	      9.51522473	     -4.96149776	    -14.40000172	      8.99431526	     -0.62924815	      5.33225512	     -7.26464300	      2.14187307	    -10.26223216	     11.83409663	     -3.07409829	      2.48997877	      6.41621685	     -7.16322197
      0.06000000	     -4.57566555	     -7.57475468	      0.31151786	     -1.08127505	      0.97716753	      0.08998361	      7.96721938	      9.54939228	     -4.91155475	    -14.39015008	      8.99010826	     -0.63146377	      5.31615263	     -7.29539253	      2.10068198	    -10.28372856	     11.84418699	     -3.08254713	      2.50080888	      6.41664175	     -7.16913474
      0.07000000	     -4.54948514	     -7.58497580	      0.27662259	     -1.08123894	      0.97718464	      0.09018227	      7.93776341	      9.57471080	     -4.87883233	    -14.39616928	      8.98657586	     -0.63594386	      5.28927356	     -7.31904863	      2.07313660	    -10.30331606	     11.85735553	     -3.08850467	      2.50888641	      6.41370628	     -7.16815796
      0.08000000	     -4.53547933	     -7.58580954	      0.26716083	     -1.08118543	      0.97718208	      0.09036566	      7.92562204	      9.58705274	     -4.87797662	    -14.40704842	      8.98584695	     -0.63593964	      5.27712339	     -7.33085176	      2.07571898	    -10.31728192	     11.85662420	     -3.08885064	      2.53721601	      6.39157685	     -7.17086720
      0.09000000	     -4.47107468	     -7.60473602	      0.24090249	     -1.08108277	      0.97722978	      0.09057873	      7.84681432	      9.62587518	     -4.82902999	    -14.40385129	      9.00632583	     -0.65403625	      5.21400107	     -7.36715987	      2.01393602	    -10.34883040	     11.89568424	     -3.10252873	      2.50907722	      6.39227771	     -7.14906323
      0.10000000	     -4.45394743	     -7.60553722	      0.23975610	     -1.08098462	      0.97722434	      0.09073002	      7.83323498	      9.63614934	     -4.82567742	    -14.42118005	      9.00430118	     -0.65412750	      5.19844199	     -7.37629117	      2.01772320	    -10.36457184	     11.89431092	     -3.10265504	      2.54258567	      6.37359112	     -7.15045607
      0.11000000	     -4.36784921	     -7.61033342	      0.24621889	     -1.08085845	      0.97728549	      0.09088718	      7.74725032	      9.65315517	     -4.81649177	    -14.44507064	      9.03644871	     -0.67572328	      5.11281915	     -7.39234422	      2.00221652	    -10.38992517	     11.93539138	     -3.10996970	      2.49703348	      6.35676621	     -7.13642357
      0.12000000	     -4.32634142	     -7.61151735	      0.25839547	     -1.08075389	      0.97730211	      0.09102605	      7.71439796	      9.66432795	     -4.80794169	    -14.47390076	      9.03898941	     -0.68099765	      5.07956240	     -7.40083201	      2.02090112	    -10.41819878	     11.94127204	     -3.10916354	      2.50447545	      6.33752351	     -7.12234201
      0.13000000	     -4.27282211	     -7.61142401	      0.28446932	     -1.08060017	      0.97732310	      0.09114842	      7.66010527	      9.67148616	     -4.82825114	    -14.49075386	      9.06762286	     -0.69060154	      5.03194326	     -7.40770973	      2.03460930	    -10.44430796	     11.97825829	     -3.10946675	      2.50671279	      6.31462149	     -7.10133504
      0.14000000	     -4.18214751	     -7.61119779	      0.32805044	     -1.08039126	      0.97739561	      0.09125586	      7.55872284	      9.67829386	     -4.86320258	    -14.49763785	      9.08746775	     -0.70745644	      4.92740882	     -7.41456345	      2.05818798	    -10.44002559	     12.00151181	     -3.09580649	      2.47389365	      6.29094622	     -7.11248494
      0.15000000	     -4.14335871	     -7.61135621	      0.36213340	     -1.08023072	      0.97740357	      0.09137094	      7.51968633	      9.68592225	     -4.87651197	    -14.51384870	      9.10046044	     -0.71176468	      4.89934369	     -7.42090563	      2.08896420	    -10.46985605	     12.01707365	     -3.09379866	      2.49650352	      6.26814695	     -7.07543389
      0.16000000	     -4.05603788	     -7.60978276	      0.43569350	     -1.08000182	      0.97746079	      0.09143291	      7.42617832	      9.68672852	     -4.94187482	    -14.52791165	      9.13395793	     -0.72543004	      4.80636118	     -7.42326760	      2.14245421	    -10.47067646	     12.05167705	     -3.08430186	      2.47485817	      6.24197442	     -7.09646645
      0.17000000	     -3.97969147	     -7.60959393	      0.50654681	     -1.07975904	      0.97751417	      0.09149906	      7.33613502	      9.69054746	     -4.99478638	    -14.52918677	      9.15181514	     -0.73553115	      4.72256917	     -7.42758983	      2.20062801	    -10.46962415	     12.06439705	     -3.07633430	      2.46831414	      6.21726958	     -7.09227525
      0.18000000	     -3.90340019	     -7.60751431	      0.58432365	     -1.07950563	      0.97756444	      0.09155047	      7.24894259	      9.69133349	     -5.05372971	    -14.53689500	      9.17661706	     -0.74446020	      4.63862325	     -7.42962243	      2.25623601	    -10.46611576	     12.07887661	     -3.07202357	      2.46413136	      6.19075703	     -7.09471337
